<?xml version="1.0" encoding="utf-8"?>
<!-- Generator: Adobe Illustrator 19.0.0, SVG Export Plug-In . SVG Version: 6.00 Build 0)  -->
<svg version="1.1" id="Capa_1" xmlns="http://www.w3.org/2000/svg" xmlns:xlink="http://www.w3.org/1999/xlink" x="0px" y="0px"
	 viewBox="0 0 1200 200" style="enable-background:new 0 0 1200 200;" xml:space="preserve">
<g id="XMLID_1_">
	<g id="XMLID_13_">
		<path id="XMLID_17_" d="M62.8,70.2c80.1,42.9,151.1,107.7,242.8,125.1c21.6,4.1,43.8,5.4,65.6,2.5c18.6-2.4,37.9-7.4,53-19.1
			c14-10.8,21.8-27.1,20.6-44.9c-1.2-17.7-10.1-34.5-23.8-45.7c-39-32-92.5-19.3-136.5-7.4c0.8,1.4,1.6,2.8,2.4,4.2
			c20.9-17.3,49.8-21.4,75.8-15.8c27.4,5.9,51.3,22.2,71.4,41.1c17.1,16.1,33,41.9,57.8,46.2c14.2,2.5,27.9-3.5,40.8-8.5
			c14.5-5.7,28.8-11.7,43-18.1c14-6.3,27.8-13,41.4-20c6.8-3.5,13.6-7.1,20.3-10.8c6.5-3.6,13.1-7.6,20.5-9.1
			c7.8-1.6,15.4,0.7,22.7,3.4c7.7,2.8,15.4,5.8,23.1,8.9c14.6,5.8,29.1,12,43.4,18.5c14.5,6.6,28.9,13.5,43.1,20.7
			c13.4,6.8,26.4,14.4,39.9,21c12.3,6,25.4,10.4,39.3,9.5c14.3-0.9,27.9-6.2,40.4-13c20.9-11.4,41.5-27.7,50.5-50.5
			c3.5-8.9,7.4-23-2.2-29.6c-4.6-3.1-10.7-4.3-16.1-5.4c-5.4-1.1-10.9-1.9-16.4-2.3c-46-3.5-93.5,18.7-119.1,57.4
			c-7.6,11.5-13.4,24.4-23.7,33.9c-9.4,8.7-21.3,14.2-33.8,16.8c-26.5,5.7-53.2-1.5-76.9-13.6c-13.2-6.7-25.6-14.9-37.8-23.2
			c-5.4-3.7-11.4-7.2-16-11.9c-2.2-2.3-4.6-5.2-4.6-8.5c0-4.7,4.2-7.7,7.7-10c22.9-15.2,52-13.3,77.5-6.6
			c54.5,14.3,107,57.4,165.6,35.6c13.7-5.1,26.6-12.3,40.1-18c13.3-5.6,27-10.2,40.9-13.9c28.8-7.6,58.7-11.1,88.5-10.4
			c14.8,0.4,29.5,1.8,44.1,4.2c3.1,0.5,4.5-4.3,1.3-4.8c-58-9.7-118.4-3.4-172.9,18.7c-13.6,5.5-26.4,12.6-40,18
			c-14.6,5.9-29.8,8.3-45.5,6.9c-30.7-2.8-58.8-17.4-86.7-29.2c-23.9-10.1-50-18.4-76.2-17C645.9,96,633.7,99,623,105
			c-8.8,4.9-18.4,12.9-12.1,23.7c2.6,4.5,6.7,7.7,10.8,10.7c6.3,4.5,12.6,8.8,19,13.1c12.3,8.2,25,15.8,38.5,21.8
			c22.8,10.1,48,14.9,72.7,9.2c10.9-2.5,21.3-7.1,30.1-14c10.7-8.4,17.4-19.9,24.3-31.4c12.9-21.4,30.8-38.3,53.3-49.3
			c21.7-10.6,46.3-15.1,70.3-12.5c6,0.7,11.9,1.8,17.7,3.5c3.6,1,7.9,2.1,10,5.5c2.2,3.6,1.5,8.3,0.6,12.2
			c-2.8,13.1-10.3,24.6-19.6,34c-9.2,9.2-20,16.7-31.5,22.9c-13.7,7.5-29.1,13.2-45,12.4c-15.4-0.8-29.3-8.5-42.6-15.7
			c-14-7.6-28.1-14.9-42.4-21.9c-27.7-13.5-56-25.8-84.8-36.8c-13.4-5.2-26.7-11-41-5.9c-13.5,4.8-25.9,13.4-38.6,19.9
			c-28.2,14.5-57.2,27.5-86.8,38.8c-14.8,5.7-29.8,10.3-44.8,2.2c-11.7-6.3-20.5-16.8-29.5-26.3c-34.7-37.4-84-70.4-137.3-55.8
			c-11.5,3.1-22,8.6-31.1,16.1c-2,1.7,0.2,4.8,2.4,4.2c39.1-10.6,84.1-22.2,121.8-0.6c16,9.2,27.8,24.1,31.4,42.4
			c3.6,18.6-3.3,36.6-18.4,48c-15,11.3-34.5,15.9-52.8,17.9c-20.8,2.3-42,0.9-62.5-3.1c-41.8-8.3-80.6-26.9-117-48.6
			c-41.3-24.6-80.4-52.9-122.9-75.7C62.5,64.3,60,68.6,62.8,70.2L62.8,70.2z"/>
	</g>
</g>
</svg>
